<?xml version="1.0" encoding="UTF-8" standalone="no"?><!DOCTYPE svg PUBLIC "-//W3C//DTD SVG 1.1//EN" "http://www.w3.org/Graphics/SVG/1.1/DTD/svg11.dtd"><svg width="100%" height="100%" viewBox="0 0 50 50" version="1.1" xmlns="http://www.w3.org/2000/svg" xmlns:xlink="http://www.w3.org/1999/xlink" xml:space="preserve" xmlns:serif="http://www.serif.com/" style="fill-rule:evenodd;clip-rule:evenodd;stroke-linejoin:round;stroke-miterlimit:1.41421;"><path d="M41.875,0c-3.929,0 -7.125,3.196 -7.125,7.125c0,1.328 0.366,2.572 1.001,3.637l-1.797,1.418c-2.228,-2.415 -5.417,-3.93 -8.954,-3.93c-0.518,0 -0.938,0.42 -0.938,0.938c0,0.518 0.42,0.937 0.938,0.937c2.941,0 5.598,1.238 7.478,3.219l-1.191,0.94c-0.018,-0.019 -0.035,-0.038 -0.053,-0.056c-3.436,-3.436 -9.027,-3.436 -12.463,0c-0.021,0.021 -0.041,0.043 -0.062,0.064l-4.463,-3.526c0.637,-1.066 1.004,-2.311 1.004,-3.641c0,-3.929 -3.196,-7.125 -7.125,-7.125c-3.929,0 -7.125,3.196 -7.125,7.125c0,3.929 3.196,7.125 7.125,7.125c1.925,0 3.673,-0.769 4.957,-2.014l4.462,3.525c-1.398,2.207 -1.754,4.936 -0.901,7.493c0.164,0.491 0.695,0.757 1.186,0.593c0.491,-0.164 0.757,-0.695 0.593,-1.186c-0.838,-2.512 -0.196,-5.236 1.675,-7.107c2.705,-2.705 7.106,-2.705 9.811,0c2.705,2.705 2.705,7.106 0,9.811c-1.9,1.9 -4.76,2.533 -7.286,1.613c-0.487,-0.178 -1.025,0.073 -1.202,0.559c-0.177,0.487 0.074,1.025 0.56,1.202c0.68,0.248 1.38,0.405 2.083,0.479l0,1.489c-5.249,-0.475 -9.375,-4.899 -9.375,-10.269c0,-0.518 -0.42,-0.938 -0.938,-0.938c-0.518,0 -0.937,0.42 -0.937,0.938c0,6.405 4.966,11.671 11.25,12.151l0,1.225c-3.487,0.46 -6.188,3.45 -6.188,7.061c0,3.929 3.196,7.125 7.125,7.125c3.929,0 7.125,-3.196 7.125,-7.125c0,-3.611 -2.7,-6.601 -6.187,-7.061l0,-4.599c1.967,-0.212 3.85,-1.079 5.296,-2.524c2.965,-2.965 3.369,-7.533 1.218,-10.938l1.189,-0.938c1.056,1.618 1.672,3.55 1.672,5.623c0,0.517 0.419,0.937 0.937,0.937c0.518,0 0.938,-0.42 0.938,-0.937c0,-2.511 -0.764,-4.847 -2.07,-6.788l1.797,-1.418c1.283,1.248 3.033,2.018 4.96,2.018c3.929,0 7.125,-3.196 7.125,-7.125c0,-3.929 -3.196,-7.125 -7.125,-7.125Zm-11.625,40.875c0,2.895 -2.355,5.25 -5.25,5.25c-2.895,0 -5.25,-2.355 -5.25,-5.25c0,-2.895 2.355,-5.25 5.25,-5.25c2.895,0 5.25,2.355 5.25,5.25Zm-3.738,-1.561c-0.855,-0.855 -2.247,-0.849 -3.102,0.006c-0.855,0.855 -0.855,2.241 0,3.096c0.428,0.427 0.988,0.641 1.548,0.641c0.56,0 1.121,-0.214 1.548,-0.641l0.012,-0.012c0.855,-0.855 0.849,-2.235 -0.006,-3.09Zm-6.417,-13.947c-0.366,-0.366 -0.962,-0.364 -1.329,0.002c-0.366,0.366 -0.366,0.96 0,1.326c0.184,0.183 0.423,0.275 0.663,0.275c0.24,0 0.48,-0.092 0.663,-0.275l0.005,-0.005c0.367,-0.366 0.364,-0.957 -0.002,-1.323Zm8.244,-8.133c-1.863,-1.862 -4.896,-1.849 -6.759,0.013c-1.862,1.862 -1.862,4.882 0,6.745c0.932,0.932 2.152,1.397 3.373,1.397c1.22,0 2.441,-0.465 3.372,-1.397l0.027,-0.026c1.862,-1.862 1.849,-4.87 -0.013,-6.732Zm-20.214,-4.859c-2.895,0 -5.25,-2.355 -5.25,-5.25c0,-2.895 2.355,-5.25 5.25,-5.25c2.895,0 5.25,2.355 5.25,5.25c0,2.895 -2.355,5.25 -5.25,5.25Zm33.75,0c-2.895,0 -5.25,-2.355 -5.25,-5.25c0,-2.895 2.355,-5.25 5.25,-5.25c2.895,0 5.25,2.355 5.25,5.25c0,2.895 -2.355,5.25 -5.25,5.25Zm-32.257,-6.768c-0.855,-0.855 -2.247,-0.849 -3.102,0.006c-0.855,0.855 -0.855,2.241 0,3.096c0.428,0.427 0.988,0.641 1.548,0.641c0.56,0 1.121,-0.214 1.548,-0.641l0.012,-0.012c0.855,-0.855 0.849,-2.235 -0.006,-3.09Zm33.844,0c-0.855,-0.855 -2.247,-0.849 -3.102,0.006c-0.855,0.855 -0.855,2.241 0,3.096c0.427,0.427 0.988,0.641 1.548,0.641c0.56,0 1.12,-0.214 1.548,-0.641l0.012,-0.012c0.855,-0.855 0.849,-2.235 -0.006,-3.09Z" style="fill:#34ab6d;"/></svg>